<svg width="65" height="65" viewBox="0 0 65 65" fill="none" xmlns="http://www.w3.org/2000/svg">
<path d="M62.9688 23.3594C63.5304 23.3594 63.9844 22.9044 63.9844 22.3438V6.09375C63.9844 5.53312 63.5304 5.07812 62.9688 5.07812H61.9531V2.03125C61.9531 1.47063 61.4991 1.01562 60.9375 1.01562H4.0625C3.50086 1.01562 3.04688 1.47063 3.04688 2.03125V5.07812H2.03125C1.46961 5.07812 1.01562 5.53312 1.01562 6.09375V22.3438C1.01562 22.9044 1.46961 23.3594 2.03125 23.3594H3.04688V57.8906H2.03125C1.46961 57.8906 1.01562 58.3456 1.01562 58.9062V62.9688C1.01562 63.5294 1.46961 63.9844 2.03125 63.9844H62.9688C63.5304 63.9844 63.9844 63.5294 63.9844 62.9688V58.9062C63.9844 58.3456 63.5304 57.8906 62.9688 57.8906H61.9531V23.3594H62.9688ZM5.07812 3.04688H59.9219V5.07812H5.07812V3.04688ZM3.04688 7.10938H61.9531V21.3281H3.04688V7.10938ZM59.9219 33.5156H47.7344V27.4219H59.9219V33.5156ZM45.7031 33.5156H33.5156V27.4219H45.7031V33.5156ZM31.4844 33.5156H19.2969V27.4219H31.4844V33.5156ZM17.2656 33.5156H5.07812V27.4219H17.2656V33.5156ZM61.9531 61.9531H3.04688V59.9219H61.9531V61.9531ZM35.5469 57.8906H33.5156V42.6562C33.5156 42.0956 33.0616 41.6406 32.5 41.6406H12.1875C11.6259 41.6406 11.1719 42.0956 11.1719 42.6562V57.8906H9.14062V39.6094H35.5469V57.8906ZM13.2031 57.8906V43.6719H21.3281V57.8906H13.2031ZM23.3594 43.6719H31.4844V57.8906H23.3594V43.6719ZM55.8594 57.8906H43.6719V39.6094H55.8594V57.8906ZM57.8906 57.8906V38.5938C57.8906 38.0331 57.4366 37.5781 56.875 37.5781H42.6562C42.0946 37.5781 41.6406 38.0331 41.6406 38.5938V57.8906H37.5781V38.5938C37.5781 38.0331 37.1241 37.5781 36.5625 37.5781H8.125C7.56336 37.5781 7.10938 38.0331 7.10938 38.5938V57.8906H5.07812V35.5469H59.9219V57.8906H57.8906ZM59.9219 25.3906H5.07812V23.3594H59.9219V25.3906Z" fill="#606060"/>
<path d="M19.2969 9.14062H15.2344C14.6727 9.14062 14.2188 9.59563 14.2188 10.1562V18.2812C14.2188 18.8419 14.6727 19.2969 15.2344 19.2969H19.2969C20.9767 19.2969 22.3438 17.9298 22.3438 16.25C22.3438 15.47 22.0492 14.758 21.5658 14.2188C22.0492 13.6795 22.3438 12.9675 22.3438 12.1875C22.3438 10.5077 20.9767 9.14062 19.2969 9.14062ZM19.2969 17.2656H16.25V15.2344H19.2969C19.8575 15.2344 20.3125 15.6904 20.3125 16.25C20.3125 16.8096 19.8575 17.2656 19.2969 17.2656ZM19.2969 13.2031H16.25V11.1719H19.2969C19.8575 11.1719 20.3125 11.6279 20.3125 12.1875C20.3125 12.7471 19.8575 13.2031 19.2969 13.2031Z" fill="#606060"/>
<path d="M28.4375 9.14062C26.197 9.14062 24.375 10.9627 24.375 13.2031V19.2969H26.4062V16.25H30.4688V19.2969H32.5V13.2031C32.5 10.9627 30.678 9.14062 28.4375 9.14062ZM26.4062 14.2188V13.2031C26.4062 12.0829 27.3173 11.1719 28.4375 11.1719C29.5577 11.1719 30.4688 12.0829 30.4688 13.2031V14.2188H26.4062Z" fill="#606060"/>
<path d="M40.625 15.2346L36.3594 9.54711C36.0973 9.19774 35.6423 9.05453 35.2259 9.19266C34.8105 9.3318 34.5312 9.71875 34.5312 10.1565V19.2971H36.5625V13.2034L40.8281 18.8909C41.0231 19.1509 41.3268 19.2971 41.6406 19.2971C41.7473 19.2971 41.8559 19.2798 41.9616 19.2453C42.377 19.1062 42.6562 18.7192 42.6562 18.2815V9.14086H40.625V15.2346Z" fill="#606060"/>
<path d="M50.7812 9.14062H48.75C48.75 10.5808 47.973 11.8747 46.7188 12.5633V9.14062H44.6875V19.2969H46.7188V15.8742C47.973 16.5628 48.75 17.8567 48.75 19.2969H50.7812C50.7812 17.1895 49.6834 15.2913 47.9009 14.2188C49.6834 13.1462 50.7812 11.248 50.7812 9.14062Z" fill="#606060"/>
<path d="M46.7188 49.7656H52.8125C53.3741 49.7656 53.8281 49.3106 53.8281 48.75V42.6562C53.8281 42.0956 53.3741 41.6406 52.8125 41.6406H46.7188C46.1571 41.6406 45.7031 42.0956 45.7031 42.6562V48.75C45.7031 49.3106 46.1571 49.7656 46.7188 49.7656ZM47.7344 43.6719H51.7969V47.7344H47.7344V43.6719Z" fill="#606060"/>
</svg>
