<svg width="72" height="74" viewBox="0 0 72 74" fill="none" xmlns="http://www.w3.org/2000/svg">
<path fill-rule="evenodd" clip-rule="evenodd" d="M54 0C44.0977 0 36 8.09766 36 18C36 20.9766 37.1484 24.0117 38.625 27.375C40.1016 30.7383 41.9648 34.3008 43.875 37.5938C47.6953 44.1797 51.5625 49.6875 51.5625 49.6875L54 53.25L56.4375 49.6875C56.4375 49.6875 60.3047 44.1797 64.125 37.5938C66.0352 34.3008 67.8984 30.7383 69.375 27.375C70.8516 24.0117 72 20.9766 72 18C72 8.09766 63.9023 0 54 0ZM23.9062 5.8125L0 16.0312V73.5938L24.0938 63.1875L48.0938 72.1875L72 61.9688V35.8125C70.0898 39.4805 67.9688 42.9961 66 46.125V58.0312L51 64.4062V59.5312L46.5938 53.1562C46.125 52.4766 45.5742 51.668 45 50.8125V64.6875L27 57.9375V13.3125L30.2812 14.5312C30.5742 12.5039 31.1016 10.5469 31.875 8.71875L23.9062 5.8125ZM66 18C66 11.3438 60.6562 6 54 6C47.3438 6 42 11.3438 42 18C42 19.1602 42.7266 21.9023 44.0625 24.9375C45.3984 27.9727 47.2852 31.418 49.125 34.5938C51.2717 38.2915 52.3471 39.9005 53.5033 41.6304C53.6662 41.8741 53.8307 42.1203 54 42.375C54.1693 42.1203 54.3338 41.8741 54.4967 41.6304C55.6529 39.9005 56.7283 38.2915 58.875 34.5938C60.7148 31.418 62.6016 27.9727 63.9375 24.9375C65.2734 21.9023 66 19.1602 66 18ZM21 13.5V58.0312L6 64.4062V19.9688L21 13.5ZM49.5 18C49.5 15.5156 51.5156 13.5 54 13.5C56.4844 13.5 58.5 15.5156 58.5 18C58.5 20.4844 56.4844 22.5 54 22.5C51.5156 22.5 49.5 20.4844 49.5 18Z" fill="white"/>
</svg>
