<svg width="65" height="64" viewBox="0 0 65 64" fill="none" xmlns="http://www.w3.org/2000/svg">
<g clip-path="url(#clip0)">
<path d="M61.7498 57.4382V56.3716C61.7407 55.0235 60.8742 53.8256 59.5831 53.3767V52.105C59.5789 50.7534 58.7112 49.5507 57.4164 49.1015V32.7086C58.7112 32.2596 59.5788 31.0568 59.5831 29.7051V27.8239L61.5572 23.9364L64.6822 20.8593C65.1052 20.4434 65.1059 19.7687 64.6835 19.3522C64.6223 19.292 64.5541 19.2391 64.4802 19.1948L33.064 0.318389C32.7178 0.110016 32.2823 0.110016 31.9362 0.318389L0.519846 19.1948C0.00924527 19.5008 -0.152872 20.1564 0.157906 20.6592C0.202847 20.7319 0.256548 20.7992 0.317738 20.8593L3.44279 23.9364L5.41689 27.8239V29.7051C5.42108 31.0567 6.28879 32.2595 7.58358 32.7085V49.1014C6.28879 49.5504 5.4212 50.7532 5.41689 52.1049V53.3766C4.12579 53.8255 3.25921 55.0234 3.2502 56.3715V57.4381C1.45612 57.44 0.00213596 58.8716 0.000231683 60.6381V62.7714C0.000104731 63.3604 0.484807 63.8379 1.083 63.838C1.08326 63.838 1.08339 63.838 1.08351 63.838H63.9164C64.5146 63.8382 64.9996 63.3609 64.9997 62.7719C64.9997 62.7718 64.9997 62.7715 64.9997 62.7714V60.6381C64.9978 58.8717 63.5438 57.4401 61.7498 57.4382ZM57.4165 29.7051C57.4159 30.294 56.9313 30.7712 56.3332 30.7717H49.8333C49.2352 30.7711 48.7505 30.294 48.75 29.7051V28.6385H57.4166V29.7051H57.4165ZM27.0835 49.1015V32.7086C28.3783 32.2596 29.2459 31.0568 29.2502 29.7051V28.6385H35.7501V29.7051C35.7543 31.0567 36.622 32.2595 37.9168 32.7085V49.1014C36.622 49.5504 35.7545 50.7532 35.7501 52.1049V53.1715H29.2502V52.1049C29.2459 50.7533 28.3782 49.5505 27.0835 49.1015ZM8.66698 30.7718C8.06891 30.7712 7.58421 30.2941 7.5837 29.7052V28.6386H16.2503V29.7052C16.2497 30.2941 15.7651 30.7713 15.167 30.7718H8.66698ZM14.0835 32.9051V48.9049H9.75026V32.9051H14.0835ZM16.2502 32.7086C16.6502 32.5687 17.0183 32.3527 17.3335 32.0728C17.6487 32.3527 18.0169 32.5687 18.4168 32.7085V49.1014C18.0167 49.2413 17.6487 49.4573 17.3335 49.7372C17.0183 49.4573 16.6501 49.2413 16.2502 49.1014V32.7086ZM18.4169 52.1049C18.4175 51.516 18.9022 51.0388 19.5002 51.0383H26.0001C26.5982 51.0389 27.0829 51.516 27.0834 52.1049V53.1715H18.4169V52.1049ZM20.5835 48.9049V32.9051H24.9167V48.9049H20.5835ZM26.0001 30.7718H19.5002C18.9021 30.7712 18.4174 30.2941 18.4169 29.7052V28.6386H27.0835V29.7052C27.0829 30.294 26.5982 30.7712 26.0001 30.7718ZM37.9167 52.1049C37.9173 51.516 38.4019 51.0388 39 51.0383H45.4999C46.098 51.0389 46.5827 51.516 46.5832 52.1049V53.1715H37.9167V52.1049ZM40.0833 48.9049V32.9051H44.4165V48.9049H40.0833ZM45.4999 30.7718H39C38.4019 30.7712 37.9172 30.2941 37.9167 29.7052V28.6386H46.5833V29.7052C46.5827 30.294 46.098 30.7712 45.4999 30.7718ZM46.5832 32.7086C46.9832 32.5687 47.3513 32.3527 47.6665 32.0728C47.9817 32.3527 48.3499 32.5687 48.7498 32.7085V49.1014C48.3497 49.2413 47.9817 49.4573 47.6665 49.7372C47.3513 49.4573 46.9831 49.2413 46.5832 49.1014V32.7086ZM48.7499 52.1049C48.7505 51.516 49.2352 51.0388 49.8332 51.0383H56.3331C56.9312 51.0389 57.4159 51.516 57.4164 52.1049V53.1715H48.7498V52.1049H48.7499ZM50.9166 48.9049V32.9051H55.2498V48.9049H50.9166ZM4.49446 21.9552L2.82288 20.3093L32.5 2.47824L62.1772 20.3093L60.5056 21.9552L33.0681 5.33034C32.7198 5.11884 32.2803 5.11884 31.9319 5.33034L4.49446 21.9552ZM56.8389 22.2386H8.16121L32.5 7.49132L56.8389 22.2386ZM7.16997 26.5051L6.08669 24.3718H58.9135L57.8302 26.5051H7.16997ZM7.58358 52.1049C7.58421 51.516 8.06879 51.0388 8.66686 51.0383H15.1668C15.7649 51.0389 16.2496 51.516 16.2501 52.1049V53.1715H7.58358V52.1049ZM62.833 61.7048H2.16705V60.6382C2.16768 60.0493 2.65226 59.5721 3.25033 59.5716H26.0001C26.5984 59.5716 27.0834 59.0941 27.0834 58.5049C27.0834 57.9158 26.5983 57.4383 26.0001 57.4383H5.41701V56.3717C5.42958 55.7715 5.93295 55.2944 6.5427 55.3051H58.4575C59.0671 55.2945 59.5706 55.7715 59.5832 56.3717V57.4383H39C38.4017 57.4383 37.9167 57.9158 37.9167 58.5049C37.9167 59.0941 38.4017 59.5716 39 59.5716H61.7498C62.3478 59.5722 62.8325 60.0493 62.833 60.6382V61.7048Z" fill="#606060"/>
<path d="M32.5001 11.0386C30.108 11.0411 28.1694 12.9498 28.1669 15.3052C28.1669 17.6615 30.1069 19.5717 32.5001 19.5717C34.8933 19.5717 36.8334 17.6615 36.8334 15.3052C36.8334 12.9488 34.8933 11.0386 32.5001 11.0386ZM32.5001 17.4385C31.3035 17.4385 30.3334 16.4834 30.3334 15.3052C30.3334 14.1269 31.3035 13.1718 32.5001 13.1718C33.6961 13.1732 34.6654 14.1274 34.6668 15.3052C34.6668 16.4834 33.6968 17.4385 32.5001 17.4385Z" fill="#606060"/>
</g>
<defs>
<clipPath id="clip0">
<rect width="65" height="64" fill="white"/>
</clipPath>
</defs>
</svg>
