<svg width="65" height="65" viewBox="0 0 65 65" fill="none" xmlns="http://www.w3.org/2000/svg">
<path d="M63.9145 41.1685H1.08549C0.487538 41.1685 0.00219727 41.6527 0.00219727 42.2517C0.00219727 54.7948 10.2065 65.0002 22.7506 65.0002H42.2493C54.7924 65.0002 64.9977 54.7948 64.9977 42.2517C64.9977 41.6527 64.5136 41.1685 63.9145 41.1685ZM42.2493 62.8336H22.7506C11.7653 62.8336 2.76228 54.1827 2.19683 43.3349H62.803C62.2377 54.1827 53.2347 62.8336 42.2493 62.8336Z" fill="#606060"/>
<path d="M55.2528 15.1764C55.2528 15.0973 55.2517 15.0182 55.2442 14.898C55.0774 13.102 53.8425 11.6266 52.2122 11.0731L53.4384 9.84682C55.5649 7.76378 55.7783 4.43165 53.9172 2.07883C51.924 -0.343302 48.3319 -0.687852 45.9107 1.30429C45.7731 1.41804 45.64 1.53827 45.5067 1.67157L44.1743 3.02349C43.6153 1.40179 42.1367 0.175554 40.3147 0.00658003C37.9153 -0.124435 35.8841 1.71702 35.7553 4.10233C35.751 4.18142 35.7498 4.26052 35.7498 4.33847V5.99914C35.1129 5.6297 34.3752 5.41744 33.5877 5.4163C33.5097 5.4163 33.4295 5.41845 33.3093 5.42493C30.9933 5.64049 29.2114 7.63048 29.2503 9.93772V11.411C28.6004 11.0351 27.8595 10.8336 27.0882 10.8325C27.0103 10.8325 26.9312 10.8346 26.811 10.8411C24.4938 11.0567 22.7119 13.0467 22.7509 15.354V31.4188C22.7509 32.0179 23.2362 32.5021 23.8342 32.5021H42.2496C44.6392 32.5021 46.5826 30.5587 46.5814 28.1712C46.5814 27.3826 46.3702 26.6427 45.9997 26.0047H47.4633C49.79 26.0686 51.78 24.2607 51.9978 21.9024C52.0444 21.0206 51.8233 20.1865 51.4053 19.4781C52.378 19.3698 53.2782 18.9397 53.9801 18.2399C54.7988 17.4231 55.2517 16.3355 55.2528 15.1764ZM52.4503 16.706C52.0409 17.1132 51.4982 17.3375 50.9187 17.3375C50.9175 17.3375 50.9165 17.3375 50.9154 17.3375H47.6656C47.0665 17.3375 46.5823 17.8229 46.5823 18.4208C46.5823 19.0188 47.0665 19.5041 47.6656 19.5041L47.7848 19.5074C48.9786 19.5713 49.8972 20.5939 49.8365 21.7443C49.7261 22.9381 48.7132 23.8622 47.4815 23.8372H42.2494C41.6503 23.8372 41.1661 24.3225 41.1661 24.9204C41.1661 25.5184 41.6503 26.0037 42.2494 26.0037C43.4443 26.0037 44.416 26.9754 44.416 28.1703C44.416 29.3652 43.4443 30.3369 42.2494 30.3369H24.9172V15.3356C24.8966 14.1364 25.8174 13.1107 26.9689 13.0022L27.0869 12.9989C28.2797 13 29.2491 13.9706 29.2502 15.1622V15.1698C29.2502 15.7678 29.7344 16.2531 30.3324 16.2531C30.3335 16.2531 30.3335 16.2531 30.3335 16.2531C30.9315 16.2531 31.4157 15.7689 31.4168 15.171V15.17V9.91931C31.3962 8.72012 32.317 7.69434 33.4685 7.58592L33.5855 7.58262C34.7793 7.58478 35.7488 8.55533 35.75 9.74805V9.75453C35.75 10.3525 36.2342 10.8378 36.8321 10.8378C36.8332 10.8378 36.8332 10.8378 36.8332 10.8378C37.4312 10.8378 37.9154 10.3536 37.9165 9.75567V9.75453V4.33834L37.9198 4.21811C37.9827 3.02539 38.9814 2.10689 40.1557 2.16643C41.3516 2.27802 42.2713 3.3038 42.2485 4.52356V5.42264C42.2485 5.86139 42.514 6.25787 42.9213 6.42468C43.3254 6.5915 43.7955 6.49616 44.1031 6.18207L47.0419 3.19983C47.122 3.12073 47.2044 3.04596 47.29 2.97563C48.7892 1.74291 51.011 1.95734 52.2329 3.43926C53.3898 4.90379 53.2565 6.99229 51.9155 8.30638L49.0665 11.1553C48.7568 11.4651 48.6636 11.9309 48.8314 12.3361C48.9982 12.7402 49.3947 13.0045 49.8323 13.0045H50.7314C50.7541 13.0045 50.7704 13.0045 50.7888 13.0045C51.9717 13.0045 52.9769 13.9167 53.0831 15.0562L53.0864 15.1754C53.0851 15.7538 52.8599 16.2976 52.4503 16.706Z" fill="#606060"/>
<path d="M46.9006 6.81874L16.5699 37.1494L18.1018 38.6813L48.4325 8.35063L46.9006 6.81874Z" fill="#606060"/>
<path d="M42.2473 8.67725H40.0807V14.0936H42.2473V8.67725Z" fill="#606060"/>
<path d="M35.7476 14.0933H33.5811V20.5929H35.7476V14.0933Z" fill="#606060"/>
<path d="M29.2481 19.4985H27.0815V27.0813H29.2481V19.4985Z" fill="#606060"/>
<path d="M46.5801 13.0098H41.1638V15.1762H46.5801V13.0098Z" fill="#606060"/>
<path d="M41.164 19.4985H34.6644V21.665H41.164V19.4985Z" fill="#606060"/>
<path d="M35.7474 25.9985H28.1647V28.1651H35.7474V25.9985Z" fill="#606060"/>
<path d="M20.2212 5.01132C20.2202 5.00916 20.2179 5.007 20.2169 5.00485C18.6884 2.71588 15.5816 2.09407 13.2938 3.62258C13.2223 3.66917 13.1519 3.71894 13.0718 3.77861L12.6818 4.07542L12.307 3.80565C10.3246 1.95658 7.20806 2.03135 5.32103 3.98986C4.39707 4.94746 3.90094 6.20836 3.92582 7.53971C3.9507 8.87107 4.49127 10.1124 5.44786 11.0354C5.72626 11.304 6.03603 11.5401 6.36966 11.7373L7.28182 12.4501V13.0048C7.28182 15.9913 9.71157 18.4211 12.6981 18.4211C15.6847 18.4211 18.1145 15.9902 18.1133 13.0038V12.4491L19.0721 11.7006C21.1463 10.1265 21.6501 7.18767 20.2212 5.01132ZM17.7504 9.98457L16.3638 11.0679C16.1016 11.2726 15.9478 11.5879 15.9478 11.9215V13.0048C15.9478 14.7965 14.4897 16.2545 12.698 16.2545C10.9063 16.2545 9.44827 14.7965 9.44827 13.0048V11.9215C9.44827 11.5879 9.29555 11.2726 9.03225 11.0679L7.64567 9.98457C7.60453 9.95207 7.5601 9.92287 7.51465 9.89685C7.31102 9.78094 7.12249 9.64015 6.95352 9.47651C6.41194 8.95435 6.10636 8.25243 6.09227 7.50061C6.07818 6.7488 6.35874 6.03608 6.8809 5.49438C7.43226 4.92245 8.16998 4.63427 8.90872 4.63427C9.6128 4.63427 10.318 4.89528 10.864 5.4229C10.9009 5.45756 10.9398 5.4912 10.9821 5.52142L12.0654 6.30141C12.4511 6.57982 12.9743 6.57335 13.3535 6.28516L14.4953 5.4262C15.1236 5.00586 15.8764 4.8586 16.6174 5.00485C17.3562 5.15211 17.9942 5.57791 18.4134 6.20404C19.2172 7.43244 18.9311 9.08765 17.7504 9.98457Z" fill="#606060"/>
<path d="M25.9984 1.0835H23.8318V3.24995H25.9984V1.0835Z" fill="#606060"/>
<path d="M32.4977 35.7476H30.3313V37.914H32.4977V35.7476Z" fill="#606060"/>
<path d="M58.4982 6.50488V8.67146C59.6931 8.67146 60.6648 9.64316 60.6648 10.8379C60.6648 12.0327 59.6931 13.0045 58.4982 13.0045V15.1709C60.8878 15.1709 62.8312 13.2275 62.8312 10.8379C62.8312 8.44828 60.8878 6.50488 58.4982 6.50488Z" fill="#606060"/>
<path d="M4.33308 16.2598H2.16663V18.4263H4.33308V16.2598Z" fill="#606060"/>
<path d="M2.16865 11.9268H0.00219727V14.0933H2.16865V11.9268Z" fill="#606060"/>
<path d="M42.2493 34.6685C39.8597 34.6685 37.9163 36.6118 37.9163 39.0015H40.0828C40.0828 37.8066 41.0545 36.8349 42.2493 36.8349C43.4442 36.8349 44.4159 37.8066 44.4159 39.0015H46.5823C46.5823 36.6118 44.6389 34.6685 42.2493 34.6685Z" fill="#606060"/>
<path d="M13.0014 24.9192H12.8649C12.3818 23.0527 10.6843 21.6694 8.66838 21.6694C6.65249 21.6694 4.95386 23.0527 4.47182 24.9192H4.33535C1.94571 24.9192 0.00231934 26.8626 0.00231934 29.2522C0.00231934 31.6418 1.94571 33.5852 4.33535 33.5852H13.0014C15.391 33.5852 17.3344 31.6418 17.3344 29.2522C17.3344 26.8626 15.391 24.9192 13.0014 24.9192ZM13.0014 31.4198H4.33522C3.14034 31.4198 2.16864 30.4481 2.16864 29.2533C2.16864 28.0585 3.14034 27.0868 4.33522 27.0868H5.41851C6.01646 27.0868 6.5018 26.6014 6.5018 26.0035C6.5018 24.8086 7.4735 23.837 8.66838 23.837C9.86326 23.837 10.835 24.8087 10.835 26.0035C10.835 26.6014 11.3203 27.0868 11.9182 27.0868H13.0015C14.1964 27.0868 15.1681 28.0585 15.1681 29.2533C15.1679 30.4482 14.1962 31.4198 13.0014 31.4198Z" fill="#606060"/>
<path d="M10.8348 31.4189H6.50175C5.9038 31.4189 5.41846 31.9043 5.41846 32.5022V36.8353C5.41846 37.4343 5.9038 37.9185 6.50175 37.9185H10.8348C11.4327 37.9185 11.9181 37.4343 11.9181 36.8353V32.5022C11.9181 31.9043 11.4327 31.4189 10.8348 31.4189ZM9.75148 35.752H7.58504V33.5855H9.75161V35.752H9.75148Z" fill="#606060"/>
<path d="M57.4149 28.1694C55.6232 28.1694 54.1652 29.6275 54.1652 31.4192C54.1652 33.2109 55.6232 34.6689 57.4149 34.6689C59.2066 34.6689 60.6646 33.2109 60.6646 31.4192C60.6646 29.6275 59.2066 28.1694 57.4149 28.1694ZM57.4149 32.5035C56.817 32.5035 56.3316 32.0171 56.3316 31.4202C56.3316 30.8233 56.817 30.3369 57.4149 30.3369C58.0129 30.3369 58.4982 30.8222 58.4982 31.4202C58.4982 32.0183 58.0129 32.5035 57.4149 32.5035Z" fill="#606060"/>
<path d="M57.4149 23.8359C53.2346 23.8359 49.8322 27.2374 49.8322 31.4187C49.8322 35.6 53.2346 39.0015 57.4149 39.0015C61.5952 39.0015 64.9977 35.6 64.9977 31.4187C64.9977 27.2374 61.5952 23.8359 57.4149 23.8359ZM57.4149 36.836C54.4284 36.836 51.9986 34.4053 51.9986 31.4197C51.9986 28.4332 54.4284 26.0034 57.4149 26.0034C60.4015 26.0034 62.8313 28.4332 62.8313 31.4197C62.8313 34.4063 60.4015 36.836 57.4149 36.836Z" fill="#606060"/>
</svg>
